<?xml version="1.0" encoding="utf-8"?>
<!-- Generator: Adobe Illustrator 25.2.0, SVG Export Plug-In . SVG Version: 6.00 Build 0)  -->
<svg version="1.1" xmlns="http://www.w3.org/2000/svg" xmlns:xlink="http://www.w3.org/1999/xlink" x="0px" y="0px"
	 viewBox="0 0 864 312.8" style="enable-background:new 0 0 864 312.8;" xml:space="preserve">
<style type="text/css">
	.st0{fill:#02A9F7;}
	.st1{fill:#02577A;}
	.st2{fill:#10F4FF;}
	.st3{fill-rule:evenodd;clip-rule:evenodd;fill:#02577A;}
	.st4{opacity:0.3;fill-rule:evenodd;clip-rule:evenodd;fill:#01052D;}
	.st5{opacity:0.2;fill-rule:evenodd;clip-rule:evenodd;fill:#F6DCFD;}
	.st6{opacity:0.35;fill:#FFF9C5;}
	.st7{fill-rule:evenodd;clip-rule:evenodd;fill:#B875B3;}
	.st8{fill-rule:evenodd;clip-rule:evenodd;fill:#BAD57A;}
	.st9{fill-rule:evenodd;clip-rule:evenodd;}
	.st10{fill:#BAD57A;}
	.st11{fill:#B875B3;}
	.st12{fill:#492727;}
	.st13{fill:#CBCBCB;}
	.st14{fill:#B4A68E;}
	.st15{fill:#E0386A;}
	.st16{fill:#8159A4;}
	.st17{fill:#E8619E;}
	.st18{fill:#00B1EE;}
	.st19{fill:#F3B530;}
	.st20{fill:#0094D5;}
	.st21{fill-rule:evenodd;clip-rule:evenodd;fill:#FFFFFF;}
	.st22{fill:url(#SVGID_1_);}
	.st23{fill:url(#SVGID_2_);}
	.st24{fill-rule:evenodd;clip-rule:evenodd;fill:url(#SVGID_3_);}
	.st25{fill-rule:evenodd;clip-rule:evenodd;fill:url(#SVGID_4_);}
	.st26{fill-rule:evenodd;clip-rule:evenodd;fill:url(#SVGID_5_);}
	.st27{fill-rule:evenodd;clip-rule:evenodd;fill:url(#SVGID_6_);}
	.st28{fill-rule:evenodd;clip-rule:evenodd;fill:url(#SVGID_7_);}
	.st29{fill-rule:evenodd;clip-rule:evenodd;fill:url(#SVGID_8_);}
	.st30{fill-rule:evenodd;clip-rule:evenodd;fill:url(#SVGID_9_);}
	.st31{fill-rule:evenodd;clip-rule:evenodd;fill:url(#SVGID_10_);}
	.st32{fill-rule:evenodd;clip-rule:evenodd;fill:url(#SVGID_11_);}
	.st33{fill-rule:evenodd;clip-rule:evenodd;fill:url(#SVGID_12_);}
	.st34{fill-rule:evenodd;clip-rule:evenodd;fill:url(#SVGID_13_);}
	.st35{fill-rule:evenodd;clip-rule:evenodd;fill:url(#SVGID_14_);}
	.st36{fill-rule:evenodd;clip-rule:evenodd;fill:url(#SVGID_15_);}
	.st37{fill-rule:evenodd;clip-rule:evenodd;fill:url(#SVGID_16_);}
	.st38{fill-rule:evenodd;clip-rule:evenodd;fill:url(#SVGID_17_);}
	.st39{fill-rule:evenodd;clip-rule:evenodd;fill:url(#SVGID_18_);}
	.st40{fill-rule:evenodd;clip-rule:evenodd;fill:url(#SVGID_19_);}
	.st41{fill-rule:evenodd;clip-rule:evenodd;fill:url(#SVGID_20_);}
	.st42{fill-rule:evenodd;clip-rule:evenodd;fill:url(#SVGID_21_);}
	.st43{fill-rule:evenodd;clip-rule:evenodd;fill:url(#SVGID_22_);}
	.st44{fill:#3B0777;}
	.st45{fill:#FC1B8C;}
	.st46{fill:#FFFFFF;}
	.st47{fill:#A50000;}
	.st48{fill:#747474;}
	.st49{fill:#A4A4A4;}
	.st50{opacity:0.8;}
	.st51{opacity:0.8;fill:#FFFFFF;}
	.st52{fill:#007E9B;}
	.st53{fill:#018CD1;}
	.st54{fill:#EB0B72;}
	.st55{fill:#51BFA1;}
	.st56{fill:#9B449A;}
	.st57{clip-path:url(#SVGID_24_);fill:#EB0B72;}
	.st58{clip-path:url(#SVGID_24_);fill:#9B449A;}
	.st59{clip-path:url(#SVGID_24_);fill:#55BF97;}
	.st60{clip-path:url(#SVGID_24_);fill:#0294D9;}
	.st61{clip-path:url(#SVGID_24_);fill:#4CB58D;}
	.st62{clip-path:url(#SVGID_24_);fill:#018CD1;}
	.st63{clip-path:url(#SVGID_24_);fill:#913A93;}
	.st64{clip-path:url(#SVGID_24_);fill:#8A789A;}
	.st65{fill:url(#SVGID_25_);}
	.st66{fill:url(#SVGID_26_);}
	.st67{fill:url(#SVGID_27_);}
	.st68{fill:url(#SVGID_28_);}
	.st69{fill:#6283AB;}
	.st70{fill:#D33607;}
	.st71{fill:#681F9D;}
	.st72{clip-path:url(#SVGID_30_);fill:url(#SVGID_31_);}
	.st73{clip-path:url(#SVGID_33_);fill:url(#SVGID_34_);}
	.st74{fill:url(#SVGID_35_);}
	.st75{fill:url(#SVGID_36_);}
	.st76{fill:url(#SVGID_37_);}
	.st77{fill:url(#SVGID_38_);}
	.st78{fill:url(#SVGID_41_);}
	.st79{fill:url(#SVGID_42_);}
	.st80{fill:url(#SVGID_43_);}
	.st81{fill:url(#SVGID_44_);}
	.st82{fill:url(#SVGID_45_);}
	.st83{fill:url(#SVGID_46_);}
	.st84{fill:url(#SVGID_47_);}
	.st85{fill:url(#SVGID_48_);}
	.st86{fill:url(#SVGID_49_);}
	.st87{fill:url(#SVGID_50_);}
	.st88{fill:url(#SVGID_51_);}
	.st89{fill:url(#SVGID_52_);}
	.st90{fill:url(#SVGID_53_);}
	.st91{fill:url(#SVGID_54_);}
	.st92{fill:url(#SVGID_55_);}
	.st93{fill:url(#SVGID_56_);}
	.st94{fill:url(#SVGID_57_);}
	.st95{fill:url(#SVGID_58_);}
	.st96{fill:url(#SVGID_59_);}
	.st97{fill:url(#SVGID_60_);}
	.st98{fill:url(#SVGID_61_);}
	.st99{fill:url(#SVGID_62_);}
	.st100{fill:url(#SVGID_63_);}
	.st101{fill:url(#SVGID_64_);}
	.st102{fill:url(#SVGID_65_);}
	.st103{fill:url(#SVGID_66_);}
	.st104{fill:url(#SVGID_67_);}
	.st105{fill:url(#SVGID_68_);}
	.st106{fill:url(#SVGID_69_);}
	.st107{fill:url(#SVGID_70_);}
	.st108{fill:url(#SVGID_71_);}
	.st109{fill:url(#SVGID_72_);}
	.st110{fill:url(#SVGID_73_);}
	.st111{fill:url(#SVGID_74_);}
	.st112{fill:url(#SVGID_75_);}
	.st113{fill:url(#SVGID_76_);}
	.st114{fill:url(#SVGID_77_);}
	.st115{fill:url(#SVGID_78_);}
	.st116{fill:url(#SVGID_79_);}
	.st117{fill:url(#SVGID_80_);}
	.st118{fill:url(#SVGID_81_);}
	.st119{fill:url(#SVGID_82_);}
	.st120{fill:url(#SVGID_83_);}
	.st121{fill:url(#SVGID_84_);}
	.st122{fill:url(#SVGID_85_);}
	.st123{fill:url(#SVGID_86_);}
	.st124{fill:url(#SVGID_87_);}
	.st125{fill:url(#SVGID_88_);}
	.st126{clip-path:url(#SVGID_90_);}
	.st127{fill:url(#SVGID_91_);}
	.st128{opacity:0.4;fill:url(#SVGID_92_);}
	.st129{fill:url(#SVGID_93_);}
	.st130{fill:url(#SVGID_96_);}
	.st131{fill:url(#SVGID_97_);}
	.st132{fill:url(#SVGID_98_);}
	.st133{fill:url(#SVGID_99_);}
	.st134{fill:url(#SVGID_100_);}
	.st135{fill:url(#SVGID_101_);}
	.st136{fill:url(#SVGID_102_);}
	.st137{fill:url(#SVGID_103_);}
	.st138{fill:url(#SVGID_104_);}
	.st139{fill:url(#SVGID_105_);}
	.st140{fill:url(#SVGID_106_);}
	.st141{fill:url(#SVGID_107_);}
	.st142{fill:#E91D7E;}
	.st143{fill:#6084EA;}
	.st144{fill:#F7931E;}
	.st145{fill:#53C3D1;}
	.st146{clip-path:url(#SVGID_109_);fill:#EB0B72;}
	.st147{clip-path:url(#SVGID_109_);fill:#9B449A;}
	.st148{clip-path:url(#SVGID_109_);fill:#55BF97;}
	.st149{clip-path:url(#SVGID_109_);fill:#0294D9;}
	.st150{clip-path:url(#SVGID_109_);fill:#4CB58D;}
	.st151{clip-path:url(#SVGID_109_);fill:#018CD1;}
	.st152{clip-path:url(#SVGID_109_);fill:#913A93;}
	.st153{clip-path:url(#SVGID_109_);fill:#8A789A;}
	.st154{fill:#8CB4D7;}
	.st155{fill:#DFF1FB;}
	.st156{clip-path:url(#SVGID_111_);fill:#6283AB;}
	.st157{clip-path:url(#SVGID_111_);fill:#DFF1FB;}
	.st158{clip-path:url(#SVGID_111_);fill:#8CB4D7;}
	.st159{clip-path:url(#SVGID_113_);fill:#6283AB;}
	.st160{clip-path:url(#SVGID_113_);fill:#DFF1FB;}
	.st161{clip-path:url(#SVGID_113_);fill:#8CB4D7;}
	.st162{clip-path:url(#SVGID_115_);fill:#EB0B72;}
	.st163{clip-path:url(#SVGID_115_);fill:#9B449A;}
	.st164{clip-path:url(#SVGID_115_);fill:#55BF97;}
	.st165{clip-path:url(#SVGID_115_);fill:#0294D9;}
	.st166{clip-path:url(#SVGID_115_);fill:#4CB58D;}
	.st167{clip-path:url(#SVGID_115_);fill:#018CD1;}
	.st168{clip-path:url(#SVGID_115_);fill:#913A93;}
	.st169{clip-path:url(#SVGID_115_);fill:#8A789A;}
	.st170{fill:#5B26C1;}
	.st171{fill:#DEF0FA;}
	.st172{fill:#DFF0FA;}
	.st173{fill:#8AB2D4;}
	.st174{fill:#6282AB;}
	.st175{fill:#8BB3D6;}
	.st176{fill:#8BB2D5;}
	.st177{fill:#6D8BB1;}
	.st178{fill:#8AB1D3;}
	.st179{fill:#6485AC;}
	.st180{fill:#6A8AB0;}
	.st181{fill:#87AED0;}
	.st182{fill:#465161;}
	.st183{fill:#7D99BA;}
	.st184{fill:#7B97B9;}
	.st185{fill:#8DA5C2;}
	.st186{fill:#8FA6C3;}
	.st187{fill:#A6B8CF;}
	.st188{fill:#969DA7;}
	.st189{fill:#6E7885;}
	.st190{fill:#C6D0DD;}
	.st191{fill:#001477;}
	.st192{fill:#FF5724;}
	.st193{fill:#890BF1;}
	.st194{fill:#D35400;}
	.st195{clip-path:url(#SVGID_117_);fill:#FFFFFF;}
	.st196{clip-path:url(#SVGID_117_);fill:#D35400;}
	.st197{clip-path:url(#SVGID_117_);}
	.st198{clip-path:url(#SVGID_119_);fill:#FFFFFF;}
	.st199{clip-path:url(#SVGID_119_);fill:#D35400;}
	.st200{clip-path:url(#SVGID_119_);}
	.st201{clip-path:url(#SVGID_121_);fill:#681F9D;}
	.st202{clip-path:url(#SVGID_121_);fill:#5B26C1;}
	.st203{clip-path:url(#SVGID_121_);fill:#D33607;}
	.st204{clip-path:url(#SVGID_121_);fill:#FF5724;}
	.st205{clip-path:url(#SVGID_123_);fill:#681F9D;}
	.st206{clip-path:url(#SVGID_123_);fill:#5B26C1;}
	.st207{clip-path:url(#SVGID_123_);fill:#D33607;}
	.st208{clip-path:url(#SVGID_123_);fill:#FF5724;}
	.st209{fill:#FCA649;}
	.st210{clip-path:url(#SVGID_125_);fill:#5B26C1;}
	.st211{clip-path:url(#SVGID_125_);fill:#FCA649;}
	.st212{clip-path:url(#SVGID_125_);}
	.st213{fill-rule:evenodd;clip-rule:evenodd;fill:#681F9D;}
</style>
<g id="Layer_1">
</g>
<g id="Layer_2">
	<g>
		<polygon class="st70" points="200.1,181.3 200.1,190 213.1,176.9 213.1,168.3 		"/>
		<path class="st71" d="M191.2,220.4c0,0.2,0,0.4-0.1,0.6c-1.4,0.4-2.7,1.2-3.6,2.3l-18.7-11.3c0.4-0.8,0.6-1.7,0.6-2.7
			c0-1.4-0.5-2.8-1.2-3.9l20.3-18.5c0.8,0.7,1.7,1.1,2.7,1.4v-13c-1,0.2-1.9,0.7-2.7,1.3L177.1,166c0.8-1.1,1.3-2.5,1.3-3.9
			c0-1.6-0.6-3.1-1.5-4.2l12-12.6c0.7,0.5,1.5,0.9,2.3,1.1v-13c-1.3,0.3-2.4,1-3.3,1.9l-11.3-8.2c0.5-1,0.8-2,0.8-3.2
			c0-1.4-0.4-2.7-1.2-3.8l12.2-11c0.8,0.7,1.7,1.2,2.7,1.4V97.3c-0.5,0.1-1,0.3-1.5,0.6c-5-7.5-13.5-12.5-23.2-12.5
			c-14.7,0-26.8,11.5-27.7,26.1c-2.8,0.8-4.9,3.4-4.9,6.5c0,0.4,0,0.7,0.1,1c-7.2,4.1-11.9,11.7-11.9,20.4c0,1.7,0.2,3.4,0.5,5
			c-2.2,1.1-3.7,3.4-3.7,6c0,2.2,1.1,4.2,2.7,5.4c-2.7,4.6-4.2,9.8-4.2,15.3c0,7.2,2.6,14.1,7.2,19.5c-0.9,1.1-1.4,2.6-1.4,4.1
			c0,2.9,1.8,5.3,4.3,6.3c-0.1,1-0.2,2-0.2,3c0,8.3,4.6,15.5,11.6,19.2c0,0.3-0.1,0.6-0.1,0.9c0,3.7,3,6.7,6.7,6.7
			c0.8,0,1.6-0.1,2.3-0.4c4.4,7.5,12.5,12.3,21.4,12.3c7.9,0,15-3.7,19.5-9.5c0.7,0.5,1.4,0.8,2.2,1V220.4z M187.4,178
			c-0.8,1.1-1.3,2.5-1.3,3.9c0,1.4,0.5,2.8,1.2,3.9L167,204.3c-0.7-0.6-1.5-1-2.4-1.3l6.9-34.2c0,0,0,0,0,0c1.6,0,3.1-0.6,4.3-1.5
			L187.4,178z M134.2,189.3l6.9-12.2c0.8,0.3,1.6,0.5,2.6,0.5c0.8,0,1.5-0.1,2.2-0.4l13.1,26.5c-0.8,0.5-1.5,1.2-2,2.1l-20.4-9.2
			c0.2-0.6,0.3-1.3,0.3-2C136.9,192.5,135.8,190.5,134.2,189.3z M132.5,149.6l13.8-3.5c1,2.5,3.4,4.3,6.3,4.3c1.6,0,3-0.6,4.2-1.5
			l9.5,9.2c-0.8,1.1-1.3,2.5-1.3,4c0,0.4,0,0.8,0.1,1.2l-15.2,4.8c-1.1-2.3-3.4-3.9-6.1-3.9c-1.4,0-2.7,0.4-3.7,1.1l-9.1-10.5
			c1.1-1.2,1.7-2.7,1.7-4.5C132.5,150.1,132.5,149.8,132.5,149.6z M150.5,137.2l-6.2-13.6c1.2-0.7,2.1-1.8,2.6-3.1l17,3.3
			c0,1.6,0.6,3.1,1.6,4.3l-9.2,10c-1.1-0.8-2.4-1.2-3.9-1.2C151.8,136.9,151.2,137,150.5,137.2z M147.4,176.5c1.8-1.2,3-3.3,3-5.6
			c0-0.4,0-0.8-0.1-1.2l15.2-4.8c0.8,1.8,2.4,3.1,4.3,3.6l-6.9,34.1c-0.1,0-0.2,0-0.3,0c-0.8,0-1.5,0.1-2.2,0.4L147.4,176.5z
			 M186.9,136.6c-0.5,1-0.8,2-0.8,3.2c0,1.6,0.6,3.1,1.5,4.2l-12,12.6c-1.1-0.8-2.5-1.3-4-1.3c-1.6,0-3,0.6-4.2,1.5l-9.5-9.2
			c0.8-1.1,1.3-2.5,1.3-4c0-1.6-0.6-3.2-1.6-4.3l9.2-10c1.1,0.8,2.4,1.2,3.9,1.2c1.9,0,3.7-0.8,4.9-2.1L186.9,136.6z M175.1,118.7
			c-1.2-1-2.7-1.6-4.4-1.6c-3.1,0-5.8,2.1-6.5,5l-16.8-3.3c0-0.3,0.1-0.6,0.1-0.9c0-0.3,0-0.6-0.1-0.9l39.2-10.6
			c0.2,0.4,0.4,0.9,0.7,1.3L175.1,118.7z M166.6,88.3c8.8,0,16.5,4.6,20.9,11.5c-0.9,1.1-1.4,2.5-1.4,4.1c0,0.3,0,0.6,0.1,0.9
			L147,115.3c-0.9-2.1-2.8-3.7-5.1-4.1C142.8,98.4,153.5,88.3,166.6,88.3z M135.2,121.7c1.2,1.8,3.3,3,5.6,3c0.7,0,1.4-0.1,2-0.3
			l6.2,13.6c-1.9,1.2-3.2,3.3-3.2,5.7c0,0.3,0,0.5,0,0.8l-13.8,3.5c-1-2.5-3.4-4.3-6.3-4.3c-0.1,0-0.1,0-0.2,0
			c-0.3-1.4-0.4-2.8-0.4-4.3C125.1,131.9,129.1,125.3,135.2,121.7z M127.1,188.7c-4.2-4.9-6.6-11.1-6.6-17.7c0-5,1.4-9.9,3.9-14.1
			c0.4,0.1,0.9,0.1,1.3,0.1c1.4,0,2.7-0.4,3.7-1.1l9.1,10.5c-1.1,1.2-1.7,2.7-1.7,4.5c0,2.2,1.1,4.1,2.7,5.4l-6.9,12.2
			c-0.8-0.3-1.6-0.5-2.6-0.5C129,187.9,128,188.2,127.1,188.7z M145.8,217.2c-2.4,0-4.5,1.2-5.7,3.1c-5.8-3.2-9.7-9.4-9.7-16.4
			c0-0.9,0.1-1.7,0.2-2.5c2.2-0.2,4.2-1.4,5.3-3.2l20.4,9.2c-0.2,0.6-0.3,1.3-0.3,2c0,1.4,0.4,2.6,1.1,3.7l-6.8,5.8
			C149.1,217.9,147.5,217.2,145.8,217.2z M169.5,239.7c-7.9,0-15.1-4.3-19-10.9c1.2-1.2,2-2.9,2-4.8c0-1.4-0.4-2.6-1.1-3.7l6.8-5.8
			c1.2,1.1,2.8,1.7,4.5,1.7c2.1,0,4-1,5.3-2.5l18.7,11.3c-0.4,0.8-0.6,1.7-0.6,2.7c0,1.2,0.3,2.4,0.9,3.4
			C183,236.2,176.6,239.7,169.5,239.7z"/>
		<path class="st70" d="M268.1,171c0-5.4-1.5-10.7-4.2-15.3c1.7-1.2,2.7-3.2,2.7-5.4c0-2.6-1.5-4.9-3.7-6c0.4-1.6,0.5-3.3,0.5-5
			c0-8.7-4.6-16.3-11.9-20.4c0.1-0.3,0.1-0.7,0.1-1c0-3.1-2.1-5.7-4.9-6.5c-0.9-14.5-12.9-26.1-27.7-26.1c-9.7,0-18.2,5-23.2,12.5
			c-0.5-0.2-1-0.4-1.5-0.6v136.7c0.8-0.2,1.6-0.5,2.2-1c0,0.1,0.1,0.1,0.2,0.2v-99.8l4.9-5.2c-0.5-0.8-0.7-1.8-0.7-2.8
			c0-3.1,2.5-5.6,5.6-5.6c3.1,0,5.6,2.5,5.6,5.6c0,3.1-2.5,5.6-5.6,5.6c-0.9,0-1.8-0.2-2.5-0.6l-4.1,4.3v11.9l18.5-18.5v-6.9
			c-2.3-0.7-4-2.8-4-5.4c0-3.1,2.5-5.6,5.6-5.6c3.1,0,5.6,2.5,5.6,5.6c0,2.5-1.7,4.7-4,5.4v8.2l-21.7,21.7v25.5l13.1-13.1V155
			c-2.3-0.7-4-2.8-4-5.4c0-3.1,2.5-5.6,5.6-5.6c3.1,0,5.6,2.5,5.6,5.6c0,2.5-1.7,4.7-4,5.4v5.4l9.1-9.1c-0.4-0.8-0.7-1.7-0.7-2.7
			c0-3.1,2.5-5.6,5.6-5.6c3.1,0,5.6,2.5,5.6,5.6c0,3.1-2.5,5.6-5.6,5.6c-1,0-1.9-0.2-2.7-0.7L216.4,165v13.3l-16.3,16.3v14.1
			l27.1-27.1V167l12.2-12.2c-0.5-0.8-0.7-1.8-0.7-2.8c0-3.1,2.5-5.6,5.6-5.6c3.1,0,5.6,2.5,5.6,5.6c0,3.1-2.5,5.6-5.6,5.6
			c-0.9,0-1.8-0.2-2.6-0.6l-11.3,11.3v14.6l-30.4,30.4v6.2l42.5-42.5v-4.5c-2.3-0.7-4-2.8-4-5.4c0-3.1,2.5-5.6,5.6-5.6
			c3.1,0,5.6,2.5,5.6,5.6c0,2.5-1.7,4.7-4,5.4v5.8l-20.5,20.5h10.9l13.8-13.8c-0.5-0.8-0.8-1.8-0.8-2.9c0-3.1,2.5-5.6,5.6-5.6
			c3.1,0,5.6,2.5,5.6,5.6c0,3.1-2.5,5.6-5.6,5.6c-0.9,0-1.7-0.2-2.4-0.6l-14.9,14.9h-15.5l-22,22v12.5c4.3,3.7,10,6,16.1,6
			c9,0,17.1-4.8,21.4-12.3c0.7,0.3,1.5,0.4,2.3,0.4c3.7,0,6.7-3,6.7-6.7c0-0.3,0-0.6-0.1-0.9c6.9-3.6,11.6-10.9,11.6-19.2
			c0-1-0.1-2-0.2-3c2.5-1,4.3-3.4,4.3-6.3c0-1.6-0.5-3-1.4-4.1C265.4,185.2,268.1,178.3,268.1,171z"/>
	</g>
	<g>
		<path class="st71" d="M631.8,247.5H642v34h30.3l-2.8,9.2h-37.8V247.5z"/>
		<path class="st71" d="M690.1,284.9l3.7-8.8h12l-8.4-17.9l-15,32.4h-10.8l20.5-41.5l10.3-2.8l21.2,44.2h-10.9l-2.7-5.8H690.1z"/>
		<path class="st71" d="M726.4,263l10.3-2.8v4.3h18.9c2.2,0,3.6-0.8,4.4-2.4c0.2-0.5,0.3-1.1,0.3-1.6c0-1.6-0.8-2.7-2.3-3.4
			c-0.7-0.3-1.5-0.4-2.4-0.4h-29.2l2.8-9.2h26.5c5.6,0,9.8,1.7,12.7,5.2c1.8,2.2,2.8,4.6,2.8,7.3c0,3.2-1.4,5.9-4.3,8.1
			c-0.3,0.3-0.7,0.5-1,0.8c3.6,2,5.7,4.7,6.3,8.1c0.1,0.6,0.2,1.1,0.2,1.6c0,3.5-1.4,6.4-4.3,8.7c-2.8,2.2-6.5,3.4-11.1,3.4h-30.4
			V263z M736.7,273.6v7.8h20.1c2.2,0,3.6-0.8,4.4-2.4c0.2-0.5,0.3-1.1,0.3-1.6c0-1.6-0.8-2.7-2.3-3.4c-0.7-0.3-1.5-0.4-2.4-0.4
			H736.7z"/>
		<path class="st71" d="M791.4,273.6c-5.8,0-10.1-1.8-12.9-5.5c-1.7-2.2-2.5-4.7-2.5-7.5c0-3.8,1.4-6.9,4.3-9.4
			c2.8-2.5,6.6-3.7,11.2-3.7h29.3l-2.8,9.2h-26.4c-2.2,0-3.7,0.8-4.4,2.4c-0.2,0.5-0.3,1-0.3,1.5c0,1.6,0.8,2.7,2.3,3.4
			c0.7,0.3,1.5,0.5,2.4,0.5h14.9c5.5,0,9.7,1.8,12.6,5.3c1.8,2.3,2.7,4.9,2.7,7.8c0,3.8-1.4,6.9-4.2,9.3c-2.8,2.5-6.5,3.7-11.1,3.7
			h-30.4l2.8-9.2h27.6c2.2,0,3.7-0.8,4.4-2.4c0.2-0.5,0.3-1,0.3-1.5c0-1.6-0.7-2.7-2.2-3.4c-0.8-0.4-1.6-0.5-2.5-0.5H791.4z"/>
	</g>
	<g>
		<g>
			<path class="st70" d="M631.8,235.7c7.3-12.2,14.4-24,21.7-36.2c-1.4,0-2.3,0-3.1,0c-24.3,0-48.6-0.1-72.9,0
				c-2.1,0-3.2-0.7-4.1-2.6c-2.7-5.7-5.6-11.3-8.7-17.6c1.6,0,2.8,0,4,0c31.2,0,62.5-0.1,93.7,0c2.4,0,3.7-0.6,4.9-2.7
				c15.7-26.2,31.4-52.4,47.2-78.6c4-6.7,10.1-9.2,16.4-6.8c3.6,1.3,5.7,4.2,7.6,7.4c10.6,17.6,21.2,35.2,31.8,52.8
				c16.4,27.2,32.7,54.4,49.1,81.6c0.5,0.7,0.8,1.5,1.4,2.6c-1,0.1-1.6,0.2-2.3,0.2c-8.4,0-16.8-0.1-25.2,0.1
				c-1.9,0-2.9-0.7-3.8-2.2c-6.2-10.6-12.6-21.1-18.8-31.7c-0.9-1.6-2-2.2-3.8-2.2c-27.5,0-55.1,0-82.6-0.1c-1.8,0-2.9,0.6-3.9,2.2
				c-6.2,10.7-12.6,21.3-18.8,31.9c-0.9,1.5-1.8,2.1-3.6,2.1C649.5,235.6,641,235.7,631.8,235.7z M757.3,179.1
				c-10.7-17.9-21.1-35.4-31.8-53.4c-10.6,18-21,35.5-31.6,53.4C715.2,179.1,736,179.1,757.3,179.1z"/>
			<path class="st71" d="M454.5,236.7c-10,0-19.3,0.1-28.5-0.1c-1,0-2.4-1-3-2c-6.4-10.5-12.6-21-18.8-31.6
				c-1.1-1.9-2.3-2.7-4.7-2.7c-20.8,0.1-41.5,0.1-62.3,0.1c-0.8,0-1.6,0-2.9,0c1.6-2.7,2.9-5,4.3-7.3c2.1-3.7,4.4-7.3,6.3-11
				c0.9-1.7,2-2.2,3.8-2.2c12.7,0.1,25.5,0,38.2,0c1,0,2,0,3.5,0c-10.8-18.1-21.3-35.7-32.1-53.9c-3.3,5.5-6.2,10.5-9.2,15.5
				c-18.2,30.8-36.5,61.6-54.6,92.5c-1.2,2.1-2.5,2.8-4.9,2.8c-8.3-0.2-16.6-0.1-25.4-0.1c0.6-1.1,0.9-1.9,1.3-2.6
				c27.1-45.1,54.2-90.3,81.4-135.4c2.6-4.4,6-7.8,11.3-8.3c5.9-0.5,9.9,2.7,12.8,7.4c6.6,11,13.2,22,19.8,32.9
				c18.8,31.1,37.5,62.3,56.3,93.4C449.4,228.2,451.8,232.3,454.5,236.7z"/>
			<path class="st70" d="M521.8,92.5c40.5,0,80.9,0,121.5,0c0,4.6,0,9,0,13.4c0,3.1-0.1,6.1,0,9.2c0.1,2-0.7,2.6-2.5,2.4
				c-0.3,0-0.5,0-0.8,0c-30.2,0-60.3,0-90.5,0c-0.9,0-1.8,0-3,0c0,39.5,0,78.7,0,118.1c-8.4,0-16.5,0-24.8,0
				C521.8,187.9,521.8,140.3,521.8,92.5z"/>
			<path class="st71" d="M495.1,235.6c-8.3,0-16.4,0-24.7,0c0-36.6,0-73.2,0-109.8c8.2,0,16.3,0,24.7,0
				C495.1,162.3,495.1,198.8,495.1,235.6z"/>
			<circle class="st70" cx="482.8" cy="102.9" r="12.3"/>
		</g>
	</g>
	<g>
		<path class="st213" d="M114.9,110.9c-4,5.7-4.7,10.5-1.8,14.3c0,0-10,9.2-30,27.5c-6.1,6.4-2.5,12.8,10.8,19c-2,1.8-3.5,5-4.5,9.6
			c-4.1,2.9-3.8,6.7,1.1,11.4c-4.2,2.3-5.7,4.8-4.6,7.3c4.4,4.9,3.8,11.7-1.8,20.4c-6.5,10.2-2,17.4,13.5,21.7
			c26,3.5,42.5,19.2,49.7,47c-58.5-6.1-106.1-49.9-117.1-107.7c-11-57.8,17.2-116,69.4-143.2c52.2-27.2,116-16.9,157.1,25.2
			C204.1,43.7,145,63.5,114.9,110.9L114.9,110.9z"/>
	</g>
</g>
</svg>
